<svg width="36" height="36" viewBox="0 0 36 36" fill="none" xmlns="http://www.w3.org/2000/svg">
<path d="M4.5 31.5C4.075 31.5 3.71875 31.3563 3.43125 31.0688C3.14375 30.7813 3 30.425 3 30V6C3 5.575 3.14375 5.21875 3.43125 4.93125C3.71875 4.64375 4.075 4.5 4.5 4.5C4.7 4.5 5.14375 4.61875 5.83125 4.85625C6.51875 5.09375 7.4375 5.35 8.5875 5.625C9.7375 5.9 11.0937 6.15625 12.6562 6.39375C14.2188 6.63125 16 6.75 18 6.75C20 6.75 21.7812 6.63125 23.3438 6.39375C24.9063 6.15625 26.2625 5.9 27.4125 5.625C28.5625 5.35 29.4813 5.09375 30.1688 4.85625C30.8563 4.61875 31.3 4.5 31.5 4.5C31.925 4.5 32.2812 4.64375 32.5687 4.93125C32.8562 5.21875 33 5.575 33 6V30C33 30.425 32.8562 30.7813 32.5687 31.0688C32.2812 31.3563 31.925 31.5 31.5 31.5C31.3 31.5 30.8563 31.3813 30.1688 31.1438C29.4813 30.9063 28.5625 30.65 27.4125 30.375C26.2625 30.1 24.9063 29.8437 23.3438 29.6062C21.7812 29.3687 20 29.25 18 29.25C16 29.25 14.2188 29.3687 12.6562 29.6062C11.0937 29.8437 9.7375 30.1 8.5875 30.375C7.4375 30.65 6.51875 30.9063 5.83125 31.1438C5.14375 31.3813 4.7 31.5 4.5 31.5ZM6 27.975C7.95 27.4 9.93125 26.9688 11.9438 26.6813C13.9563 26.3938 15.975 26.25 18 26.25C20.025 26.25 22.0438 26.3938 24.0563 26.6813C26.0688 26.9688 28.05 27.4 30 27.975V8.0625C28.05 8.6375 26.0688 9.0625 24.0563 9.3375C22.0438 9.6125 20.025 9.75 18 9.75C15.975 9.75 13.9563 9.6125 11.9438 9.3375C9.93125 9.0625 7.95 8.6375 6 8.0625V27.975Z" fill="#7A7E85"/>
<path d="M9 22.5H15.75V20.25H11.25V18.75H14.25C14.7 18.75 15 18.75 15.3 18.3C15.6 17.85 15.75 17.7 15.75 17.25V15C15.75 14.55 15.75 14.25 15.3 13.95C14.85 13.65 14.7 13.5 14.25 13.5H9V15.75H13.5V17.25H10.5C10.05 17.25 9.75 17.25 9.45 17.7C9.15 18.15 9 18.3 9 18.75V22.5ZM18.75 22.5H24.75C25.2 22.5 25.5 22.5 25.8 22.05C26.1 21.6 26.25 21.45 26.25 21V15C26.25 14.55 26.25 14.25 25.8 13.95C25.35 13.65 25.2 13.5 24.75 13.5H18.75V22.5ZM21 20.25V15.75H24V20.25H21Z" fill="#7A7E85"/>
</svg>
