<svg width="36" height="36" viewBox="0 0 36 36" fill="none" xmlns="http://www.w3.org/2000/svg">
<path d="M31.5095 5.01392C33.0838 5.01405 34.3599 6.29022 34.3601 7.8645V23.5305C34.36 24.2865 34.0597 25.0116 33.5251 25.5461L28.9216 30.1506C28.387 30.6852 27.6611 30.9855 26.905 30.9856H4.48999C2.91567 30.9854 1.63949 29.7084 1.6394 28.134V12.4846C1.63947 11.7257 1.94207 10.9982 2.48022 10.4631L7.12769 5.84302L7.33667 5.65454C7.84302 5.24196 8.47861 5.01396 9.13745 5.01392H31.5095ZM4.6394 27.9856H25.9529V13.4231H4.6394V27.9856ZM28.8738 12.6213C28.923 12.831 28.9529 13.049 28.9529 13.2737V25.8762L31.3601 23.469V10.136L28.8738 12.6213ZM12.2566 16.6516C12.6615 16.6517 12.797 16.786 13.2019 17.0559C13.607 17.326 13.6072 17.597 13.6072 18.0022V19.3528C13.6071 19.7578 13.472 19.8939 13.2019 20.2991C12.9319 20.7038 12.6616 20.7043 12.2566 20.7043C12.6615 20.7044 12.7971 20.8387 13.2019 21.1086C13.6069 21.3788 13.6072 21.6498 13.6072 22.0549V23.4055C13.6071 23.8105 13.472 23.9466 13.2019 24.3518C12.9319 24.7566 12.6616 24.7571 12.2566 24.7571H7.52808V22.8655H11.5808V21.7844H8.87866V19.7581H11.5808V18.678H7.52808V16.6516H12.2566ZM20.3621 16.6516C21.0374 16.6516 21.7133 16.9209 22.2537 17.4612C22.7938 18.0014 23.0641 18.5425 23.0642 19.3528V22.0549C23.0641 22.7301 22.7936 23.4053 22.2537 23.9456C21.7133 24.4859 21.1726 24.7571 20.3621 24.7571H16.3093V16.6516H20.3621ZM18.3357 23.0012H20.3621C20.6322 23.0012 20.6329 22.8658 20.9031 22.7307C21.1729 22.5956 21.1716 22.3248 21.1716 22.1897V19.4875C21.1715 19.2181 21.0379 19.2175 20.9031 18.9485C20.768 18.6783 20.4972 18.678 20.3621 18.678H18.3357V23.0012ZM6.77612 10.4231H26.1013C26.3256 10.4231 26.5433 10.4513 26.7527 10.5002L29.24 8.01392H9.19995L6.77612 10.4231Z" fill="#212224"/>
</svg>
