<svg width="24" height="24" viewBox="0 0 24 24" fill="none" xmlns="http://www.w3.org/2000/svg">
<path fill-rule="evenodd" clip-rule="evenodd" d="M20.3601 7.95492L13.425 3.18198C13.12 2.97563 12.7252 2.97563 12.4202 3.18198L10.0158 4.83277C10.4733 5.1737 10.7694 5.712 10.7694 6.32207C10.7694 6.3759 10.7604 6.42076 10.7514 6.47459L12.9136 4.98529L18.799 9.03152L16.592 15.4642H9.2442L7.48575 10.3234C7.18071 10.5388 6.82185 10.6644 6.41812 10.6644C6.14897 10.6644 5.89776 10.6105 5.67347 10.5029L7.77285 16.6305C7.89845 16.9894 8.2304 17.2316 8.60721 17.2316H12.0523C12.0344 17.2944 12.0344 17.3572 12.0344 17.429V20.0846C12.0344 20.5691 12.4292 20.9728 12.9226 20.9728C13.416 20.9728 13.8108 20.5781 13.8108 20.0846V17.429C13.8108 17.3662 13.8108 17.2944 13.7928 17.2316H17.238C17.6148 17.2316 17.9557 16.9894 18.0723 16.6305L20.701 8.95975C20.8266 8.58294 20.701 8.17024 20.3691 7.94595L20.3601 7.95492Z" fill="#C0C3CC"/>
<path d="M9.60311 6.32213C9.60311 6.68997 9.29808 6.99501 8.93024 6.99501H7.10001V8.81626C7.10001 9.19307 6.79498 9.48914 6.42714 9.48914C6.0593 9.48914 5.75426 9.19307 5.75426 8.81626V6.99501H3.92404C3.5562 6.99501 3.25116 6.68997 3.25116 6.32213C3.25116 5.9543 3.5562 5.64926 3.92404 5.64926H5.75426V3.81903C5.75426 3.4512 6.0593 3.14616 6.42714 3.14616C6.79498 3.14616 7.10001 3.4512 7.10001 3.81903V5.64926H8.93024C9.29808 5.64926 9.60311 5.94532 9.60311 6.32213Z" fill="#C0C3CC"/>
</svg>
