<svg width="24" height="24" viewBox="0 0 24 24" fill="none" xmlns="http://www.w3.org/2000/svg">
<path fill-rule="evenodd" clip-rule="evenodd" d="M18.2333 2.81075C19.5603 2.81075 20.6359 3.88646 20.636 5.21345C20.636 6.11553 20.1388 6.90131 19.4036 7.31223V11.0669C19.4036 13.5849 17.3627 15.6267 14.8447 15.6267H13.2426V17.2863C13.9777 17.6972 14.4749 18.483 14.4749 19.385C14.4748 20.7119 13.3991 21.7876 12.0722 21.7877H7.75887C6.43191 21.7877 5.35629 20.712 5.35617 19.385C5.35617 18.483 5.85338 17.6972 6.58856 17.2863V13.5316C6.58856 11.0136 8.62952 8.97194 11.1475 8.97179H12.7496V7.31223C12.0146 6.90127 11.5172 6.11542 11.5172 5.21345C11.5173 3.88645 12.5938 2.81075 13.9208 2.81075H18.2333ZM13.9208 4.28962C13.4105 4.28962 12.9962 4.70313 12.9961 5.21345C12.9961 5.72388 13.4104 6.13821 13.9208 6.13821H14.2285V10.4507H11.1475C9.4462 10.4508 8.06743 11.8303 8.06743 13.5316V18.4603H7.75887C7.24851 18.4604 6.83504 18.8747 6.83504 19.385C6.83516 19.8953 7.24859 20.3088 7.75887 20.3089H12.0722C12.5825 20.3087 12.996 19.8953 12.9961 19.385C12.9961 18.8747 12.5825 18.4604 12.0722 18.4603H11.7637V14.1478H14.8447C16.546 14.1478 17.9256 12.7682 17.9256 11.0669V6.13821H18.2333C18.7437 6.13821 19.1571 5.72388 19.1571 5.21345C19.157 4.70313 18.7436 4.28962 18.2333 4.28962H13.9208Z" fill="#C0C3CC"/>
<path d="M6.72014 2.21216C7.11303 2.21231 7.43178 2.53087 7.43178 2.9238V4.85671H9.36469C9.75758 4.85686 10.0763 5.17541 10.0763 5.56834C10.0763 5.96127 9.75758 6.27983 9.36469 6.27998H7.43178V8.21289C7.43178 8.60582 7.11303 8.92437 6.72014 8.92453C6.32711 8.92453 6.0085 8.60592 6.0085 8.21289V6.27998H4.07559C3.68256 6.27998 3.36395 5.96137 3.36395 5.56834C3.36395 5.17532 3.68256 4.85671 4.07559 4.85671H6.0085V2.9238C6.0085 2.53077 6.32711 2.21216 6.72014 2.21216Z" fill="#C0C3CC"/>
</svg>
