<svg width="24" height="24" viewBox="0 0 24 24" fill="none" xmlns="http://www.w3.org/2000/svg">
<path fill-rule="evenodd" clip-rule="evenodd" d="M11.6487 1.71178C11.8805 1.66411 12.1195 1.66411 12.3513 1.71178C12.6178 1.76659 12.8573 1.90043 13.0739 2.02143C13.0925 2.03184 13.111 2.04216 13.1292 2.05232L20.2987 6.03534C20.318 6.04609 20.3376 6.05691 20.3574 6.06783C20.5864 6.19427 20.8396 6.33407 21.0332 6.54411C21.2014 6.72668 21.3287 6.94307 21.4066 7.1788C21.4962 7.45001 21.4955 7.73923 21.4948 8.00083C21.4947 8.02342 21.4947 8.0458 21.4947 8.06795V15.9321C21.4947 15.9543 21.4947 15.9767 21.4948 15.9993C21.4955 16.2609 21.4962 16.5501 21.4066 16.8213C21.3287 17.057 21.2014 17.2734 21.0332 17.456C20.8396 17.666 20.5864 17.8058 20.3574 17.9323C20.3376 17.9432 20.318 17.954 20.2987 17.9648L13.1292 21.9478C13.111 21.9579 13.0925 21.9682 13.0739 21.9787C12.8573 22.0997 12.6178 22.2335 12.3513 22.2883C12.1195 22.336 11.8805 22.336 11.6487 22.2883C11.3822 22.2335 11.1427 22.0997 10.9262 21.9786C10.9075 21.9682 10.8891 21.9579 10.8708 21.9478L3.70136 17.9648C3.682 17.954 3.6624 17.9432 3.64263 17.9323C3.41362 17.8058 3.16042 17.666 2.96686 17.456C2.79862 17.2734 2.6713 17.057 2.59341 16.8213C2.5038 16.5501 2.50456 16.2609 2.50525 15.9993C2.50531 15.9767 2.50537 15.9543 2.50537 15.9321V8.06795C2.50537 8.0458 2.50531 8.02341 2.50525 8.00082C2.50456 7.73923 2.5038 7.45001 2.59341 7.1788C2.6713 6.94307 2.79862 6.72668 2.96686 6.54411C3.16042 6.33407 3.41362 6.19427 3.64263 6.06784C3.6624 6.05692 3.682 6.0461 3.70136 6.03534L10.8708 2.05232C10.8891 2.04216 10.9075 2.03184 10.9262 2.02143C11.1427 1.90043 11.3822 1.76659 11.6487 1.71178ZM11.9637 3.22961C11.9583 3.23146 11.9425 3.23739 11.9112 3.2525C11.8491 3.28246 11.7685 3.32688 11.6236 3.40739L4.87643 7.15583L12 11.1134L19.1236 7.15581L12.3764 3.40739C12.2315 3.32688 12.1509 3.28246 12.0888 3.2525C12.0575 3.23739 12.0418 3.23146 12.0364 3.22961C12.0124 3.22503 11.9877 3.22503 11.9637 3.22961ZM19.9445 8.47304V15.9321C19.9445 16.1072 19.9442 16.2046 19.9398 16.2775C19.9376 16.3142 19.9349 16.3318 19.9338 16.3378C19.9254 16.362 19.9123 16.3842 19.8953 16.4033C19.8906 16.4071 19.8765 16.4181 19.8455 16.4378C19.7839 16.4771 19.6989 16.5247 19.5459 16.6097L12.7751 20.3712L12.7751 12.4561L19.9445 8.47304ZM11.2249 12.4561L4.05551 8.47307V15.9321C4.05551 16.1072 4.05584 16.2046 4.06023 16.2775C4.06244 16.3142 4.06514 16.3319 4.06626 16.3378C4.07466 16.362 4.08774 16.3842 4.10477 16.4033C4.10944 16.4071 4.12352 16.4181 4.15457 16.4378C4.21612 16.4771 4.30118 16.5247 4.45418 16.6097L11.2249 20.3712L11.2249 12.4561ZM19.9333 16.3402C19.9332 16.3403 19.9335 16.3388 19.9338 16.3378Z" fill="#C0C3CC"/>
</svg>
