<svg width="24" height="24" viewBox="0 0 24 24" fill="none" xmlns="http://www.w3.org/2000/svg">
<path d="M20.7478 2.24109C21.0352 2.14528 21.3519 2.22035 21.5662 2.43445C21.7804 2.64869 21.8553 2.96538 21.7595 3.25281L15.7546 21.2538C15.6505 21.5659 15.3664 21.7825 15.0378 21.7997C14.7093 21.8166 14.4032 21.6306 14.2673 21.3309L10.6501 13.3495L2.66968 9.73328C2.37009 9.59736 2.18389 9.29133 2.20093 8.96277C2.21817 8.63438 2.43487 8.35008 2.74683 8.24597L20.7478 2.24109ZM12.2107 12.9188L14.8816 18.8124L19.1687 5.96082L12.2107 12.9188ZM5.18726 9.11804L11.0798 11.788L18.0378 4.82996L5.18726 9.11804Z" fill="#5A5D62"/>
</svg>
