<svg width="24" height="24" viewBox="0 0 24 24" fill="none" xmlns="http://www.w3.org/2000/svg">
<path d="M11.9998 16.5811C8.89706 16.5811 6.27674 16.1415 4.40894 15.46C3.47812 15.1204 2.70183 14.7084 2.14624 14.2354C1.59789 13.7684 1.18632 13.1711 1.18628 12.4698C1.18639 11.8379 1.46592 11.2828 1.84937 10.8321C2.23228 10.3822 2.74702 10.0008 3.30054 9.69442C3.76518 9.4373 4.28013 9.22363 4.80521 9.0607C4.97728 9.00731 5.00894 8.76916 4.85265 8.67955L3.97704 8.17709C3.88313 8.12313 3.84924 8.00423 3.90059 7.90886L4.22366 7.30888C4.27702 7.20978 4.40161 7.17421 4.49924 7.2302L7.47937 8.93964C7.5779 8.99608 7.60974 9.12314 7.54945 9.21937L7.35522 9.52938L5.73696 12.1205C5.67755 12.2157 5.55144 12.2434 5.45759 12.1818L4.85572 11.7871C4.7648 11.7274 4.73818 11.6061 4.79579 11.5139L5.36933 10.5971C5.46459 10.445 5.32772 10.2584 5.15655 10.3125C4.73205 10.4466 4.31158 10.6212 3.93042 10.8321C3.46784 11.0881 3.09179 11.3776 2.8396 11.6739C2.5883 11.9692 2.48717 12.237 2.48706 12.4698C2.4871 12.6334 2.58476 12.9016 2.98804 13.2452C3.385 13.5832 4.00725 13.9293 4.85425 14.2384C6.54331 14.8547 9.0052 15.2803 11.9998 15.2804C14.9943 15.2804 17.4561 14.8546 19.1453 14.2384C19.9924 13.9292 20.6135 13.5832 21.0105 13.2452C21.4146 12.9012 21.5124 12.6335 21.5125 12.4698C21.5123 12.237 21.4112 11.9692 21.1599 11.6739C20.9077 11.3777 20.5315 11.088 20.0691 10.8321C19.688 10.6213 19.2678 10.4466 18.8435 10.3124C18.6724 10.2583 18.5355 10.4447 18.6306 10.5969L19.0212 11.2218L19.2043 11.5138C19.2621 11.606 19.2355 11.7275 19.1445 11.7872L18.5429 12.1818C18.4491 12.2434 18.3229 12.2157 18.2635 12.1205L16.6453 9.52938L16.451 9.21937C16.3908 9.12314 16.4226 8.99608 16.5211 8.93964L19.5012 7.2302C19.5989 7.17421 19.7235 7.20978 19.7768 7.30888L20.0999 7.90886C20.1512 8.00423 20.1174 8.12313 20.0234 8.17709L19.1489 8.67956C18.9928 8.76926 19.0245 9.00724 19.1964 9.06069C19.7208 9.22373 20.2349 9.43764 20.699 9.69442C21.2524 10.0007 21.7663 10.3824 22.1492 10.8321C22.5328 11.2829 22.8131 11.8377 22.8132 12.4698C22.8132 13.1713 22.4019 13.7684 21.8533 14.2354C21.2976 14.7085 20.5216 15.1203 19.5906 15.46C17.7227 16.1415 15.1025 16.5811 11.9998 16.5811Z" fill="#212224"/>
<path d="M16.4477 19.328C16.4477 20.1953 15.7584 20.8846 14.8911 20.8846H9.10885C8.24158 20.8846 7.55223 20.1953 7.55221 19.328V17.5816C7.55221 17.458 7.66308 17.3641 7.78517 17.3831C9.06611 17.5826 10.4826 17.6932 12.0005 17.6932C13.518 17.6932 14.934 17.5825 16.2148 17.3831C16.3369 17.3641 16.4477 17.458 16.4477 17.5816V19.328Z" fill="#212224"/>
<path d="M12.0005 3.11511C13.6238 3.11526 14.9585 4.42746 14.9585 6.07312C14.9584 7.05259 14.4793 7.9043 13.7381 8.4393C13.5919 8.54485 13.6139 8.79845 13.7792 8.87057C15.3393 9.55133 16.4477 11.0986 16.4477 12.9227V13.6006C16.4477 13.6959 16.3806 13.7781 16.287 13.7959C15.0784 14.0261 13.636 14.1698 12.0005 14.1698C10.3646 14.1698 8.92174 14.0262 7.71293 13.7959C7.6193 13.7781 7.55221 13.6959 7.55221 13.6006V12.9227C7.55228 11.0954 8.64587 9.54605 10.2239 8.86709C10.389 8.79604 10.4126 8.54419 10.2675 8.43803C9.53616 7.90294 9.04248 7.05178 9.04245 6.07312C9.04245 4.44961 10.3769 3.11511 12.0005 3.11511Z" fill="#212224"/>
</svg>
