<svg width="24" height="24" viewBox="0 0 24 24" fill="none" xmlns="http://www.w3.org/2000/svg">
<path fill-rule="evenodd" clip-rule="evenodd" d="M12 2.5C16.1421 2.5 19.5 5.85786 19.5 10C19.5 13.8043 16.6672 16.9443 12.9961 17.4316C12.9976 17.4543 13 17.477 13 17.5V20.5C13 21.0523 12.5523 21.5 12 21.5C11.4477 21.5 11 21.0523 11 20.5V17.5C11 17.477 11.0014 17.4542 11.0029 17.4316C7.33232 16.9439 4.5 13.804 4.5 10C4.5 5.85786 7.85786 2.5 12 2.5ZM12 4.5C8.96243 4.5 6.5 6.96243 6.5 10C6.5 13.0376 8.96243 15.5 12 15.5C15.0376 15.5 17.5 13.0376 17.5 10C17.5 6.96243 15.0376 4.5 12 4.5Z" fill="#C0C3CC"/>
</svg>
