<svg width="20" height="20" viewBox="0 0 20 20" fill="none" xmlns="http://www.w3.org/2000/svg">
<path fill-rule="evenodd" clip-rule="evenodd" d="M7.21183 1.59649C7.47623 1.44541 7.80112 1.4454 8.06551 1.59649L12.8995 4.35934L16.9962 1.62741C17.2601 1.4516 17.5996 1.43547 17.8791 1.58509C18.1587 1.73477 18.3333 2.02641 18.3333 2.34356V14.4472C18.3333 14.7348 18.1892 15.0039 17.95 15.1634L13.4114 18.1891C13.1403 18.3698 12.7901 18.3816 12.5072 18.22L7.63826 15.4384L2.7701 18.22C2.50399 18.3721 2.17666 18.3713 1.91154 18.2176C1.64644 18.0637 1.48274 17.7803 1.48267 17.4738V5.36927C1.48272 5.06074 1.64855 4.77612 1.91642 4.62302L7.21183 1.59649ZM3.20304 5.86813V15.9918L6.77889 13.9484V3.82549L3.20304 5.86813ZM8.49845 13.9484L12.0743 15.9918V5.86813L8.49845 3.82549V13.9484ZM13.7939 5.82988V15.8665L16.6129 13.9874V3.95L13.7939 5.82988Z" fill="#EDEFF2"/>
</svg>
