<svg width="21" height="21" viewBox="0 0 21 21" fill="none" xmlns="http://www.w3.org/2000/svg">
<path d="M10.1748 8.2041C11.2641 8.2041 12.1475 9.08751 12.1475 10.1768C12.1473 11.2659 11.2639 12.1484 10.1748 12.1484C9.08575 12.1483 8.20331 11.2658 8.20312 10.1768C8.20312 9.08757 9.08564 8.2042 10.1748 8.2041Z" fill="#5A5D62"/>
<path fill-rule="evenodd" clip-rule="evenodd" d="M10.1758 0C11.9924 0 13.4504 1.37229 14.4062 3.1709C14.7206 3.76245 14.993 4.42155 15.2188 5.13281C15.9306 5.35866 16.5897 5.63174 17.1816 5.94629C18.9801 6.9021 20.3523 8.35931 20.3525 10.1758C20.3525 11.9925 18.9803 13.4504 17.1816 14.4062C16.5898 14.7208 15.9305 14.9929 15.2188 15.2188C14.9929 15.9305 14.7208 16.5898 14.4062 17.1816C13.4504 18.9803 11.9925 20.3525 10.1758 20.3525C8.35935 20.3523 6.90208 18.9801 5.94629 17.1816C5.63175 16.5897 5.35866 15.9306 5.13281 15.2188C4.42154 14.993 3.76246 14.7206 3.1709 14.4062C1.37227 13.4504 0 11.9924 0 10.1758C0.0002379 8.35931 1.37239 6.9021 3.1709 5.94629C3.76256 5.63189 4.42142 5.35862 5.13281 5.13281C5.35862 4.42141 5.63188 3.76257 5.94629 3.1709C6.90208 1.3724 8.35934 0.000283988 10.1758 0ZM13.3467 15.6787C12.3454 15.8601 11.2787 15.959 10.1758 15.959C9.07278 15.959 8.00621 15.8602 7.00488 15.6787C7.11611 15.9433 7.23394 16.1946 7.35938 16.4307C8.20672 18.0251 9.24075 18.7517 10.1758 18.752C11.111 18.752 12.1456 18.0255 12.9932 16.4307C13.1186 16.1947 13.2355 15.9431 13.3467 15.6787ZM10.1758 5.99316C8.82614 5.9932 7.55791 6.15295 6.43066 6.43066C6.15295 7.5579 5.9932 8.82614 5.99316 10.1758C5.99316 11.5256 6.15294 12.7944 6.43066 13.9219C7.55793 14.1996 8.82614 14.3593 10.1758 14.3594C11.5256 14.3594 12.7943 14.1996 13.9219 13.9219C14.1996 12.7943 14.3594 11.5257 14.3594 10.1758C14.3593 8.82613 14.1996 7.55794 13.9219 6.43066C12.7944 6.15294 11.5256 5.99316 10.1758 5.99316ZM4.67383 7.00488C4.40934 7.1161 4.1579 7.23396 3.92188 7.35938C2.32741 8.20675 1.59985 9.24073 1.59961 10.1758C1.59961 11.1109 2.3272 12.1457 3.92188 12.9932C4.15777 13.1185 4.40949 13.2355 4.67383 13.3467C4.49243 12.3454 4.39355 11.2787 4.39355 10.1758C4.39358 9.07278 4.49234 8.00618 4.67383 7.00488ZM15.6787 7.00488C15.8602 8.00621 15.959 9.07277 15.959 10.1758C15.959 11.2787 15.8601 12.3454 15.6787 13.3467C15.9431 13.2355 16.1947 13.1186 16.4307 12.9932C18.0255 12.1456 18.752 11.111 18.752 10.1758C18.7517 9.24073 18.0251 8.20675 16.4307 7.35938C16.1946 7.23394 15.9433 7.11611 15.6787 7.00488ZM10.1758 1.59961C9.24075 1.5999 8.20672 2.32744 7.35938 3.92188C7.23395 4.15791 7.11611 4.40933 7.00488 4.67383C8.00619 4.49234 9.07278 4.39358 10.1758 4.39355C11.2786 4.39355 12.3454 4.49147 13.3467 4.67285C13.2356 4.40883 13.1184 4.15752 12.9932 3.92188C12.1457 2.32723 11.1109 1.59961 10.1758 1.59961Z" fill="#5A5D62"/>
</svg>
