<svg width="24" height="24" viewBox="0 0 24 24" fill="none" xmlns="http://www.w3.org/2000/svg">
<path fill-rule="evenodd" clip-rule="evenodd" d="M18.8846 6.72485C20.3265 6.72511 21.4949 7.89421 21.4949 9.33618V14.6643C21.4948 16.1061 20.3264 17.2754 18.8846 17.2756H5.11603C3.674 17.2756 2.50487 16.1063 2.5047 14.6643V9.33618C2.5047 7.89405 3.6739 6.72485 5.11603 6.72485H18.8846ZM5.11603 8.38696C4.59162 8.38696 4.16681 8.81177 4.16681 9.33618V14.6643C4.16698 15.1886 4.59172 15.6135 5.11603 15.6135H18.8846C19.4087 15.6133 19.8336 15.1884 19.8338 14.6643V9.33618C19.8338 8.81193 19.4088 8.38722 18.8846 8.38696H17.5779V10.8C17.5779 11.2587 17.2065 11.631 16.7479 11.6311C16.2891 11.6311 15.9169 11.2588 15.9168 10.8V8.38696H14.4129V12.0002C14.4129 12.459 14.0415 12.8311 13.5828 12.8313C13.124 12.8313 12.7518 12.4591 12.7518 12.0002V8.38696H11.2479V10.8C11.2478 11.2587 10.8764 11.6309 10.4178 11.6311C9.95898 11.6311 9.58681 11.2588 9.58673 10.8V8.38696H8.08282V12.0002C8.08282 12.4589 7.71139 12.831 7.25275 12.8313C6.79389 12.8313 6.42169 12.4591 6.42169 12.0002V8.38696H5.11603Z" fill="#C0C3CC"/>
</svg>
