<svg width="20" height="20" viewBox="0 0 20 20" fill="none" xmlns="http://www.w3.org/2000/svg">
<path d="M9.2002 1.84961C13.2594 1.84971 16.5498 5.14097 16.5498 9.2002C16.5498 10.887 15.98 12.4402 15.0244 13.6807L17.8721 16.5283C18.2429 16.8993 18.243 17.5011 17.8721 17.8721C17.5011 18.243 16.8993 18.2429 16.5283 17.8721L13.6807 15.0244C12.4402 15.98 10.887 16.5498 9.2002 16.5498C5.14097 16.5498 1.84971 13.2594 1.84961 9.2002C1.84961 5.1409 5.1409 1.84961 9.2002 1.84961ZM9.2002 3.75C6.19024 3.75 3.75 6.19024 3.75 9.2002C3.75011 12.2101 6.19031 14.6504 9.2002 14.6504C10.6659 14.6503 11.996 14.0713 12.9756 13.1299C12.998 13.1016 13.0218 13.0739 13.0479 13.0479C13.0739 13.0218 13.1016 12.998 13.1299 12.9756C14.0713 11.996 14.6503 10.6659 14.6504 9.2002C14.6504 6.19031 12.2101 3.75011 9.2002 3.75Z" fill="#E3E4E8" stroke="#E3E4E8" stroke-width="0.3" stroke-linecap="round" stroke-linejoin="round"/>
</svg>
