<svg width="24" height="24" viewBox="0 0 24 24" fill="none" xmlns="http://www.w3.org/2000/svg">
<path d="M8.99005 22.9454L8.55224 19.4429C8.31509 19.3517 8.09163 19.2422 7.88184 19.1145C7.67206 18.9868 7.46683 18.85 7.26617 18.7041L4.00995 20.0722L1 14.8732L3.81841 12.7389C3.80017 12.6112 3.79104 12.4881 3.79104 12.3695V11.6307C3.79104 11.5121 3.80017 11.389 3.81841 11.2613L1 9.12695L4.00995 3.92794L7.26617 5.2961C7.46683 5.15017 7.67662 5.01335 7.89552 4.88566C8.11443 4.75796 8.33333 4.64851 8.55224 4.5573L8.99005 1.05481H15.01L15.4478 4.5573C15.6849 4.64851 15.9084 4.75796 16.1182 4.88566C16.3279 5.01335 16.5332 5.15017 16.7338 5.2961L19.9901 3.92794L23 9.12695L20.1816 11.2613C20.1998 11.389 20.209 11.5121 20.209 11.6307V12.3695C20.209 12.4881 20.1907 12.6112 20.1542 12.7389L22.9726 14.8732L19.9627 20.0722L16.7338 18.7041C16.5332 18.85 16.3234 18.9868 16.1045 19.1145C15.8856 19.2422 15.6667 19.3517 15.4478 19.4429L15.01 22.9454H8.99005ZM10.9055 20.7563H13.0672L13.4502 17.8558C14.0158 17.7099 14.5402 17.4955 15.0236 17.2128C15.507 16.93 15.9494 16.588 16.3507 16.1867L19.0597 17.3085L20.1269 15.4478L17.7736 13.6692C17.8648 13.4138 17.9287 13.1448 17.9652 12.862C18.0017 12.5793 18.0199 12.292 18.0199 12.0001C18.0199 11.7082 18.0017 11.4209 17.9652 11.1381C17.9287 10.8554 17.8648 10.5863 17.7736 10.3309L20.1269 8.55232L19.0597 6.69163L16.3507 7.84088C15.9494 7.42131 15.507 7.07015 15.0236 6.7874C14.5402 6.50464 14.0158 6.2903 13.4502 6.14436L13.0945 3.24386H10.9328L10.5498 6.14436C9.98425 6.2903 9.45978 6.50464 8.97637 6.7874C8.49295 7.07015 8.05058 7.41219 7.64925 7.81352L4.9403 6.69163L3.87313 8.55232L6.22637 10.3036C6.13516 10.5772 6.07131 10.8508 6.03483 11.1245C5.99834 11.3981 5.9801 11.69 5.9801 12.0001C5.9801 12.292 5.99834 12.5747 6.03483 12.8483C6.07131 13.122 6.13516 13.3956 6.22637 13.6692L3.87313 15.4478L4.9403 17.3085L7.64925 16.1593C8.05058 16.5789 8.49295 16.93 8.97637 17.2128C9.45978 17.4955 9.98425 17.7099 10.5498 17.8558L10.9055 20.7563ZM12.0547 15.8309C13.1128 15.8309 14.0158 15.457 14.7637 14.709C15.5116 13.9611 15.8856 13.0581 15.8856 12.0001C15.8856 10.942 15.5116 10.0391 14.7637 9.29113C14.0158 8.5432 13.1128 8.16924 12.0547 8.16924C10.9784 8.16924 10.0709 8.5432 9.33209 9.29113C8.59328 10.0391 8.22388 10.942 8.22388 12.0001C8.22388 13.0581 8.59328 13.9611 9.33209 14.709C10.0709 15.457 10.9784 15.8309 12.0547 15.8309Z" fill="#C0C3CC"/>
</svg>
