<svg width="28" height="28" viewBox="0 0 28 28" fill="none" xmlns="http://www.w3.org/2000/svg">
<path d="M11.8702 4.52492L21.1102 9.85492L21.1002 20.6249L23.2802 19.3649V8.65492L14.0002 3.29492L11.8702 4.52492Z" fill="#DCDFE5"/>
<path d="M13.7501 2.86231C13.9049 2.77296 14.0954 2.77294 14.2501 2.86231L23.5304 8.22168C23.6851 8.31101 23.7804 8.47668 23.7804 8.65528V19.3652C23.7803 19.5437 23.6849 19.7086 23.5304 19.7979L21.3507 21.0576C21.1959 21.1471 21.0045 21.147 20.8497 21.0576C20.6952 20.9682 20.6005 20.8026 20.6007 20.624L20.6095 10.1436L11.6202 4.95801C11.4657 4.86878 11.3704 4.70387 11.3702 4.52539C11.3702 4.34673 11.4655 4.18114 11.6202 4.0918L13.7501 2.86231ZM12.8702 4.52442L21.3605 9.42188C21.5152 9.5113 21.6106 9.67673 21.6105 9.85547L21.6007 19.7568L22.7804 19.0762V8.94336L14.0001 3.8711L12.8702 4.52442Z" fill="#DCDFE5"/>
<path d="M13.8168 22.9395L14.3168 22.9404L14.3148 24.7266H13.8148L13.3148 24.7256L13.3168 22.9395H13.8168ZM13.8217 17.5791L14.3217 17.5801L14.3187 21.1533H13.8187L13.3187 21.1523L13.3217 17.5791H13.8217ZM13.8226 13.4277L14.9193 12.7861L15.1713 13.2178L15.4242 13.6494L14.3246 14.292L14.3236 15.793H13.8236L13.3236 15.792L13.3246 14.2949L12.0287 13.5479L12.5287 12.6816L13.8226 13.4277ZM17.8636 11.6416L18.1166 12.0732L16.7699 12.8613L16.5179 12.4297L16.265 11.998L17.6117 11.21L17.8636 11.6416ZM10.9818 11.79L10.4818 12.6562L7.38904 10.873L7.88806 10.0068L10.9818 11.79ZM6.34216 9.11523L5.84216 9.98145L4.29529 9.08984L4.79529 8.22266L6.34216 9.11523Z" fill="#DCDFE5"/>
<path d="M13.8285 24.1465L15.2163 23.3467L15.7163 24.2129L14.0756 25.1592C13.9997 25.203 13.9132 25.2266 13.8256 25.2266H13.8217V24.7266H13.8187V25.2266H13.8148C13.6941 25.2265 13.5848 25.1817 13.4984 25.1104L12.0199 24.2579L12.5199 23.3917L13.8285 24.1465ZM13.8187 24.7227H13.8217V24.7198H13.8187V24.7227ZM13.8109 24.7227H13.8148V24.7198H13.8129L13.8109 24.7227ZM10.975 22.5001L10.475 23.3663L7.38513 21.5831L7.88513 20.7168L10.975 22.5001ZM18.5082 20.5059V22.2911C18.5081 22.4682 18.4139 22.632 18.2611 22.7217L17.0851 23.4085L16.5783 22.5462L17.5082 22.004V20.5059H18.5082ZM5.04529 17.5811V19.0772L6.34021 19.8252L5.84021 20.6915L4.29529 19.7999C4.14055 19.7106 4.04529 19.5449 4.04529 19.3663V17.5811H5.04529ZM18.5082 15.1504V18.7208H17.5082V15.1504H18.5082ZM5.04529 12.2266V15.796H4.04529V12.2266H5.04529ZM18.2582 11.1475C18.4128 11.2368 18.5082 11.4025 18.5082 11.5811V13.3653H17.5082V11.8692L16.2113 11.1202L16.7113 10.2549L18.2582 11.1475ZM6.31927 8.21012L5.04529 8.94536V10.4415H4.04529V8.6563C4.0453 8.47757 4.14045 8.31198 4.29529 8.22271L5.81927 7.34391L6.31927 8.21012ZM15.1654 9.36138L14.9154 9.794L14.6644 10.2266L11.5717 8.44048L12.0717 7.57427L15.1654 9.36138ZM8.53455 5.75982C8.67745 5.69974 8.84146 5.7094 8.97791 5.78814L10.5248 6.68072L10.0248 7.54693L8.72986 6.79888L7.60479 7.45391L7.35089 7.02325L7.09796 6.59258L8.47498 5.79009L8.53455 5.75982Z" fill="#DCDFE5"/>
<path fill-rule="evenodd" clip-rule="evenodd" d="M6.50025 1.14237C6.65484 1.05303 6.84554 1.05225 7.00025 1.14139L12.1194 4.09159L21.3596 9.42166C21.5144 9.51096 21.6106 9.67656 21.6106 9.85526V9.90506L21.5999 20.6258V26.4246C21.5999 26.6032 21.5046 26.7689 21.3499 26.8582C21.1952 26.9473 21.0044 26.9475 20.8499 26.8582L16.3601 24.2638L17.3602 23.6863L20.1502 25.2977C20.3501 25.4131 20.6 25.269 20.6002 25.0381L20.6094 10.4324C20.6096 10.2536 20.5141 10.0883 20.3592 9.99895L7.7001 2.69961C7.5001 2.58429 7.25025 2.72863 7.25025 2.9595L7.25024 6.14439L6.25024 6.72918L6.25025 1.57498C6.25025 1.39643 6.34566 1.23171 6.50025 1.14237Z" fill="#DCDFE5"/>
</svg>
