<svg width="24" height="24" viewBox="0 0 24 24" fill="none" xmlns="http://www.w3.org/2000/svg">
<path d="M19.4629 13.0329V11.1364H22.9322V17.0727C22.4799 17.1755 21.9505 17.2577 21.344 17.3194C20.7479 17.3913 20.1979 17.4273 19.6942 17.4273C18.5121 17.4273 17.6332 17.2886 17.0576 17.011C16.4922 16.7232 16.0965 16.2041 15.8703 15.4537C15.6545 14.7033 15.5465 13.552 15.5465 11.9999C15.5465 10.5196 15.6596 9.39919 15.8857 8.63853C16.1119 7.87786 16.5179 7.34333 17.1038 7.03496C17.7 6.72658 18.5892 6.57239 19.7713 6.57239C20.347 6.57239 20.938 6.6135 21.5445 6.69574C22.151 6.76769 22.5981 6.83965 22.8859 6.9116V8.76188C21.8169 8.62825 21.046 8.56143 20.5731 8.56143C19.6994 8.56143 19.1032 8.61797 18.7845 8.73104C18.4658 8.84411 18.25 9.12679 18.1369 9.57908C18.0238 10.0211 17.9673 10.828 17.9673 11.9999C17.9673 13.0689 18.0033 13.8347 18.0752 14.2973C18.1575 14.7598 18.3168 15.0734 18.5532 15.2378C18.7999 15.4023 19.206 15.4845 19.7713 15.4845C20.018 15.4845 20.3264 15.4743 20.6965 15.4537V13.0329H19.4629Z" fill="#C0C3CC"/>
<path d="M8.62627 17.304V6.69581H11.0162V15.2379H14.5317V17.304H8.62627Z" fill="#C0C3CC"/>
<path d="M1.06738 17.304V6.69581H7.17328V8.68485H3.45732V11.229H6.72613V13.2334H3.45732V17.304H1.06738Z" fill="#C0C3CC"/>
</svg>
